<svg width="24" height="23" viewBox="0 0 24 23" fill="none" xmlns="http://www.w3.org/2000/svg">
<path d="M9.65839 5.82025C9.68975 5.7758 9.72538 5.74335 9.77017 5.71976C9.81431 5.69652 9.89613 5.66667 10.0408 5.66667H13.9592C14.0462 5.66667 14.195 5.70018 14.2985 5.77628C14.3421 5.80828 14.3739 5.84466 14.397 5.89039C14.4197 5.93545 14.449 6.01897 14.449 6.16667V8H9.55102V6.16667C9.55102 6.0778 9.58385 5.92594 9.65839 5.82025ZM16.0816 8V6.16667C16.0816 5.36173 15.7348 4.77822 15.2525 4.42372C14.8118 4.09982 14.3075 4 13.9592 4H10.0408C9.25231 4 8.6807 4.35405 8.33344 4.84641C8.01615 5.29628 7.91837 5.81109 7.91837 6.16667V8H6.12245C5.77413 8 5.26982 8.09982 4.82914 8.42372C4.34683 8.77822 4 9.36173 4 10.1667V16.8333C4 17.1889 4.09778 17.7037 4.41507 18.1536C4.76234 18.6459 5.33394 19 6.12245 19H17.8776C18.2259 19 18.7302 18.9002 19.1709 18.5763C19.6532 18.2218 20 17.6383 20 16.8333V10.1667C20 9.81109 19.9022 9.29628 19.5849 8.84641C19.2377 8.35405 18.6661 8 17.8776 8H16.0816ZM14.449 9.66667V17.3333H9.55102V9.66667H14.449ZM16.0816 17.3333V9.66667H17.8776C18.0222 9.66667 18.1041 9.69652 18.1482 9.71976C18.193 9.74335 18.2286 9.7758 18.26 9.82025C18.3345 9.92594 18.3673 10.0778 18.3673 10.1667V16.8333C18.3673 16.981 18.3381 17.0646 18.3153 17.1096C18.2922 17.1553 18.2604 17.1917 18.2169 17.2237C18.1134 17.2998 17.9646 17.3333 17.8776 17.3333H16.0816ZM7.91837 17.3333H6.12245C5.97777 17.3333 5.89595 17.3035 5.85181 17.2802C5.80701 17.2567 5.77138 17.2242 5.74003 17.1797C5.66548 17.0741 5.63265 16.9222 5.63265 16.8333V10.1667C5.63265 10.019 5.66189 9.93545 5.68466 9.89039C5.70777 9.84466 5.73956 9.80828 5.78311 9.77628C5.88664 9.70018 6.03539 9.66667 6.12245 9.66667H7.91837V17.3333Z" fill="black"/>
</svg>
