<svg width="24" height="24" viewBox="0 0 24 24" fill="none" xmlns="http://www.w3.org/2000/svg">
<path d="M4.06092 6.49385C4.18474 6.19491 4.47645 6 4.80002 6H19.2C19.4997 6 19.7742 6.16748 19.9113 6.43393C20.0485 6.70039 20.0252 7.02114 19.851 7.26499L11.851 18.465C11.6697 18.7188 11.3573 18.8441 11.0508 18.7859C10.7443 18.7277 10.4996 18.4967 10.4239 18.194L8.87764 12.009L4.23434 7.36568C4.00554 7.13689 3.9371 6.79279 4.06092 6.49385ZM10.5318 12.0285L11.556 16.1253L16.6769 8.95598L10.5318 12.0285ZM15.8111 7.6H6.73139L9.75798 10.6266L15.8111 7.6Z" fill="black"/>
</svg>
