<svg width="24" height="24" viewBox="0 0 24 24" fill="none" xmlns="http://www.w3.org/2000/svg">
<path d="M12 5.4672L13.0987 6.37865C13.5044 6.71523 14.0358 6.88012 14.5713 6.83555L16.0211 6.71485L16.349 8.06891C16.47 8.56894 16.7985 9.00063 17.2591 9.2651L18.5063 9.98125L17.9381 11.2607C17.7282 11.7332 17.7282 12.2668 17.9381 12.7393L18.5063 14.0187L17.2591 14.7349C16.7985 14.9994 16.47 15.4311 16.349 15.9311L16.0211 17.2851L14.5712 17.1645C14.0358 17.1199 13.5044 17.2848 13.0987 17.6214L12 18.5328L10.9013 17.6214C10.4956 17.2848 9.96417 17.1199 9.42875 17.1645L7.97888 17.2851L7.65105 15.9311C7.52999 15.4311 7.20155 14.9994 6.74095 14.7349L5.49369 14.0187L6.06193 12.7393C6.27177 12.2668 6.27177 11.7332 6.06193 11.2607L5.49369 9.98125L6.74095 9.2651C7.20155 9.00063 7.52999 8.56894 7.65105 8.06891L7.97888 6.71485L9.42875 6.83555C9.96417 6.88012 10.4956 6.71523 10.9013 6.37865L12 5.4672ZM12.4335 4.15469C12.1848 3.94844 11.8152 3.94844 11.5665 4.15469L10.0344 5.42572C9.89916 5.53792 9.72202 5.59288 9.54355 5.57802L7.52166 5.40971C7.19358 5.3824 6.8945 5.5899 6.82031 5.8963L6.36315 7.78457C6.32279 7.95125 6.21331 8.09515 6.05978 8.1833L4.32044 9.182C4.0382 9.34406 3.92396 9.6798 4.05255 9.96933L4.84498 11.7536C4.91493 11.9111 4.91493 12.0889 4.84498 12.2464L4.05255 14.0307C3.92396 14.3202 4.0382 14.6559 4.32044 14.818L6.05978 15.8167C6.21331 15.9049 6.32279 16.0487 6.36315 16.2154L6.82031 18.1037C6.8945 18.4101 7.19358 18.6176 7.52166 18.5903L9.54355 18.422C9.72202 18.4071 9.89916 18.4621 10.0344 18.5743L11.5665 19.8453C11.8152 20.0516 12.1848 20.0516 12.4335 19.8453L13.9656 18.5743C14.1008 18.4621 14.278 18.4071 14.4565 18.422L16.4783 18.5903C16.8064 18.6176 17.1055 18.4101 17.1797 18.1037L17.6369 16.2154C17.6772 16.0487 17.7867 15.9049 17.9402 15.8167L19.6796 14.818C19.9618 14.6559 20.076 14.3202 19.9475 14.0307L19.155 12.2464C19.0851 12.0889 19.0851 11.9111 19.155 11.7536L19.9475 9.96933C20.076 9.6798 19.9618 9.34406 19.6796 9.182L17.9402 8.1833C17.7867 8.09515 17.6772 7.95125 17.6369 7.78457L17.1797 5.8963C17.1055 5.5899 16.8064 5.3824 16.4783 5.40971L14.4565 5.57802C14.278 5.59288 14.1008 5.53792 13.9656 5.42572L12.4335 4.15469Z" fill="black"/>
<path d="M8.79563 8.79563C9.56712 8.02413 10.6744 7.69231 12 7.69231C12.3399 7.69231 12.6154 7.96782 12.6154 8.30769C12.6154 8.64756 12.3399 8.92308 12 8.92308C10.8641 8.92308 10.1252 9.20664 9.66591 9.66591C9.20664 10.1252 8.92308 10.8641 8.92308 12C8.92308 12.3399 8.64756 12.6154 8.30769 12.6154C7.96782 12.6154 7.69231 12.3399 7.69231 12C7.69231 10.6744 8.02413 9.56712 8.79563 8.79563Z" fill="black"/>
</svg>
